<svg width="25" height="12" viewBox="0 0 25 12" fill="none" xmlns="http://www.w3.org/2000/svg">
<path fill-rule="evenodd" clip-rule="evenodd" d="M3.58944 0.160004H18.4106C19.6587 0.160004 20.1113 0.28996 20.5676 0.533989C21.0239 0.778019 21.382 1.13612 21.626 1.59242C21.87 2.04872 22 2.50132 22 3.74944V8.07056C22 9.31869 21.87 9.77129 21.626 10.2276C21.382 10.6839 21.0239 11.042 20.5676 11.286C20.1113 11.53 19.6587 11.66 18.4106 11.66H3.58944C2.34131 11.66 1.88871 11.53 1.43242 11.286C0.97612 11.042 0.618016 10.6839 0.373986 10.2276C0.129956 9.77129 0 9.31869 0 8.07056V3.74944C0 2.50132 0.129956 2.04872 0.373986 1.59242C0.618016 1.13612 0.97612 0.778019 1.43242 0.533989C1.88871 0.28996 2.34131 0.160004 3.58944 0.160004ZM3.58944 1.16C2.60246 1.16 2.2579 1.22654 1.90401 1.4158C1.62199 1.56663 1.40663 1.78199 1.2558 2.06402C1.06654 2.41791 1 2.76246 1 3.74944V8.07056C1 9.05754 1.06654 9.4021 1.2558 9.75599C1.40663 10.038 1.62199 10.2534 1.90401 10.4042C2.2579 10.5935 2.60246 10.66 3.58944 10.66H18.4106C19.3975 10.66 19.7421 10.5935 20.096 10.4042C20.378 10.2534 20.5934 10.038 20.7442 9.75599C20.9335 9.4021 21 9.05754 21 8.07056V3.74944C21 2.76246 20.9335 2.41791 20.7442 2.06402C20.5934 1.78199 20.378 1.56663 20.096 1.4158C19.7421 1.22654 19.3975 1.16 18.4106 1.16H3.58944ZM24.5 5.85001C24.5 7.08658 23 7.85001 23 7.85001V3.85001C23 3.85001 24.5 4.61343 24.5 5.85001Z" fill="black" fill-opacity="0.36"/>
<rect x="2" y="2.07666" width="18" height="7.66667" rx="1.6" fill="black"/>
</svg>
