<svg width="19" height="24" viewBox="0 0 19 24" fill="none" xmlns="http://www.w3.org/2000/svg">
<path d="M3.62388 21.8312C2.52229 20.5794 1.42074 19.2776 0.719712 17.7253C0.0187262 16.073 -0.181575 14.1703 0.168941 12.3677C0.519457 10.5651 1.32057 8.86266 2.47225 7.4106C2.37212 8.66241 2.82276 9.96425 3.67396 10.9156C3.17323 8.51219 3.97439 5.90846 5.57667 4.00575C7.17894 2.10305 9.38212 0.8512 11.6854 0C10.5337 1.20172 10.3835 3.10442 10.8342 4.70674C11.2848 6.30901 12.2362 7.71103 13.0874 9.16309C13.9386 10.6151 14.7398 12.1173 14.7898 13.7697C15.2405 12.9185 15.7412 12.0672 16.0416 11.1159C16.3421 10.1645 16.4923 9.16309 16.2419 8.21172C17.1432 9.3133 17.644 10.4148 17.8943 11.8169C18.1447 13.2189 18.0946 14.6709 17.9444 16.073C17.7441 17.6252 17.3435 19.2275 16.4923 20.5293C15.4909 22.0815 13.8886 23.1831 12.1361 23.7839C9.0316 24.3348 5.97722 23.8841 3.62388 21.8312Z" fill="white"/>
<path d="M7.42932 23.6838C11.5352 25.2861 15.591 20.4292 13.3377 16.6738C13.3377 16.6237 13.2876 16.6237 13.2876 16.5737C13.4879 18.6266 12.9872 20.1288 12.0358 20.98C12.5366 19.7783 12.1861 18.3763 11.5852 17.1746C10.9843 16.0229 10.1331 14.9714 9.48219 13.8698C8.83125 12.7182 8.33056 11.4163 8.63099 10.1145C7.42928 11.0158 6.57808 12.3677 6.22756 13.8197C5.87704 15.2718 6.07734 16.8741 6.72829 18.2261C5.97722 17.6753 5.42645 16.774 5.37636 15.8226C4.5752 16.774 4.07451 18.0258 4.12455 19.2776C4.1246 21.2303 5.67679 22.9828 7.42932 23.6838Z" fill="#F7BAA6"/>
</svg>
