<svg width="20" height="20" viewBox="0 0 20 20" fill="none" xmlns="http://www.w3.org/2000/svg">
<path d="M19.3125 11.0626C19.7708 10.5376 20 9.91687 20 9.20012C20 8.55014 19.7622 7.98772 19.2882 7.51248C18.8132 7.03727 18.2508 6.7998 17.6008 6.7998H14.1384C14.1717 6.68317 14.2051 6.58317 14.2384 6.49985C14.2713 6.41654 14.3176 6.32477 14.3757 6.22477C14.4339 6.12473 14.4757 6.04969 14.5006 5.99978C14.6506 5.7166 14.7654 5.48312 14.8446 5.29993C14.9237 5.1164 15.0025 4.8665 15.0819 4.54983C15.1612 4.23333 15.2006 3.91653 15.2006 3.59985C15.2006 3.39995 15.1982 3.2373 15.1942 3.11239C15.1903 2.9874 15.1691 2.79984 15.1319 2.5498C15.0942 2.2999 15.0441 2.09154 14.9818 1.92495C14.9192 1.75832 14.8191 1.57067 14.6818 1.36249C14.5443 1.15391 14.3777 0.9854 14.1817 0.856157C13.9857 0.727002 13.7358 0.618686 13.4316 0.531255C13.1272 0.443735 12.7836 0.399998 12.4001 0.399998C12.1834 0.399998 11.9961 0.479198 11.8376 0.637556C11.671 0.804188 11.5291 1.0125 11.4125 1.26241C11.2958 1.51244 11.2145 1.72912 11.1686 1.91252C11.1228 2.09583 11.0706 2.35007 11.0125 2.67497C10.9373 3.02514 10.8813 3.27705 10.8435 3.43121C10.8061 3.58536 10.733 3.78742 10.6248 4.03736C10.5163 4.28749 10.3873 4.48735 10.2373 4.63743C9.96231 4.91238 9.54152 5.41241 8.97473 6.13734C8.56629 6.6706 8.14551 7.17474 7.7122 7.64977C7.27881 8.12489 6.96218 8.37068 6.76223 8.38736C6.55405 8.404 6.37485 8.48942 6.22481 8.64366C6.07477 8.79781 5.99977 8.97911 5.99977 9.18738V17.1998C5.99977 17.4165 6.07889 17.6018 6.23725 17.756C6.39552 17.9103 6.58303 17.9915 6.79971 17.9999C7.09133 18.0083 7.74968 18.1914 8.77473 18.5501C9.41631 18.7664 9.91831 18.9312 10.2808 19.0436C10.6432 19.1559 11.1498 19.2768 11.7993 19.4062C12.4494 19.5353 13.0493 19.6 13.5992 19.6H13.8118H14.7618H15.2117C16.3203 19.5834 17.1408 19.2583 17.6743 18.6251C18.1575 18.05 18.3615 17.2958 18.2868 16.3625C18.6117 16.0542 18.8369 15.6627 18.9617 15.1876C19.1032 14.6795 19.1032 14.192 18.9617 13.7254C19.345 13.2171 19.5242 12.6462 19.499 12.0129C19.5001 11.746 19.4377 11.4294 19.3125 11.0626Z" fill="white"/>
<path d="M4.40004 8.40009H0.80015C0.583344 8.40009 0.395828 8.47929 0.237514 8.63765C0.0792007 8.79592 0 8.98344 0 9.20011V17.2004C0 17.4168 0.0792007 17.6044 0.237558 17.7629C0.396003 17.921 0.583519 18.0002 0.800194 18.0002H4.40004C4.61667 18.0002 4.8041 17.921 4.9625 17.7629C5.12081 17.6044 5.19997 17.4168 5.19997 17.2004V9.20011C5.19997 8.98344 5.12077 8.79597 4.9625 8.63765C4.80414 8.47925 4.61671 8.40009 4.40004 8.40009ZM2.96247 16.1689C2.80416 16.323 2.61669 16.4001 2.40001 16.4001C2.17498 16.4001 1.98536 16.323 1.83129 16.1689C1.67714 16.0147 1.60008 15.8252 1.60008 15.6001C1.60008 15.3835 1.67709 15.1959 1.83129 15.0377C1.9854 14.8793 2.17498 14.8 2.40001 14.8C2.61669 14.8 2.80416 14.8793 2.96247 15.0377C3.12083 15.1959 3.20003 15.3835 3.20003 15.6001C3.20003 15.8252 3.12101 16.0147 2.96247 16.1689Z" fill="#CAB3FB"/>
</svg>
