<svg width="12" height="12" viewBox="0 0 12 12" fill="none" xmlns="http://www.w3.org/2000/svg">
<path d="M1.41333 1.33333H10.58L9.95333 0.666667H1.95333L1.41333 1.33333ZM11.6933 1.48667C11.8867 1.71333 12 2 12 2.33333V10.6667C12 11.0203 11.8595 11.3594 11.6095 11.6095C11.3594 11.8595 11.0203 12 10.6667 12H1.33333C0.979711 12 0.640573 11.8595 0.390524 11.6095C0.140476 11.3594 0 11.0203 0 10.6667V2.33333C0 2 0.113333 1.71333 0.306667 1.48667L1.22667 0.366667C1.41333 0.14 1.68667 0 2 0H10C10.3133 0 10.5867 0.14 10.7667 0.366667L11.6933 1.48667ZM2 10H6V8H2V10Z" fill="#7E42F5"/>
</svg>
