<svg width="22" height="20" viewBox="0 0 22 20" fill="none" xmlns="http://www.w3.org/2000/svg">
<path d="M6.3476 6.7L7.2968 0.399998H2.36L0.297197 5.8C0.233597 5.992 0.199997 6.1912 0.199997 6.4C0.199997 7.7248 1.58 8.8 3.2852 8.8C4.8572 8.8 6.1568 7.8832 6.3476 6.7ZM11 8.8C12.704 8.8 14.0852 7.7248 14.0852 6.4C14.0852 6.3508 14.0816 6.3016 14.0792 6.2548L13.4684 0.399998H8.5316L7.9196 6.25C7.9172 6.2992 7.9148 6.3484 7.9148 6.4C7.9148 7.7248 9.296 8.8 11 8.8ZM17 10.0552V14.8H5V10.0624C4.4744 10.252 3.896 10.36 3.2852 10.36C3.0512 10.36 2.8244 10.3324 2.6 10.3012V17.92C2.6 18.844 3.3548 19.6 4.2776 19.6H17.72C18.644 19.6 19.4 18.8428 19.4 17.92V10.3024C19.1732 10.3372 18.9443 10.3569 18.7148 10.3612C18.1297 10.3606 17.5492 10.257 17 10.0552ZM21.704 5.8L19.6388 0.399998H14.7032L15.6512 6.6904C15.836 7.8784 17.1356 8.8 18.7148 8.8C20.4188 8.8 21.8 7.7248 21.8 6.4C21.8 6.1912 21.7664 5.992 21.704 5.8Z" fill="white"/>
</svg>
